<svg width="1280" height="420" viewBox="0 0 1280 420" fill="none" xmlns="http://www.w3.org/2000/svg">
  <defs>
    <linearGradient id="bg" x1="0" y1="0" x2="1280" y2="420" gradientUnits="userSpaceOnUse">
      <stop offset="0" stop-color="#020617"/>
      <stop offset="0.28" stop-color="#06142B"/>
      <stop offset="0.58" stop-color="#071F49"/>
      <stop offset="1" stop-color="#0A66FF"/>
    </linearGradient>
    <radialGradient id="orbA" cx="50%" cy="50%" r="50%">
      <stop offset="0" stop-color="#2F80FF" stop-opacity="0.92"/>
      <stop offset="1" stop-color="#2F80FF" stop-opacity="0"/>
    </radialGradient>
    <radialGradient id="orbB" cx="50%" cy="50%" r="50%">
      <stop offset="0" stop-color="#00E5FF" stop-opacity="0.35"/>
      <stop offset="1" stop-color="#00E5FF" stop-opacity="0"/>
    </radialGradient>
    <linearGradient id="gold" x1="0" y1="0" x2="1" y2="1">
      <stop offset="0" stop-color="#FFFFFF"/>
      <stop offset="0.45" stop-color="#A7D8FF"/>
      <stop offset="1" stop-color="#00D4FF"/>
    </linearGradient>
    <linearGradient id="stroke" x1="0" y1="420" x2="1280" y2="0">
      <stop offset="0" stop-color="#00D4FF" stop-opacity="0"/>
      <stop offset="0.52" stop-color="#00D4FF" stop-opacity="0.82"/>
      <stop offset="1" stop-color="#FFFFFF" stop-opacity="0"/>
    </linearGradient>
    <filter id="glow" x="-60%" y="-60%" width="220%" height="220%">
      <feGaussianBlur stdDeviation="12" result="blur"/>
      <feMerge>
        <feMergeNode in="blur"/>
        <feMergeNode in="SourceGraphic"/>
      </feMerge>
    </filter>
    <filter id="soft" x="-20%" y="-20%" width="140%" height="140%">
      <feDropShadow dx="0" dy="14" stdDeviation="18" flood-color="#000000" flood-opacity="0.35"/>
    </filter>
  </defs>

  <rect width="1280" height="420" rx="36" fill="url(#bg)"/>
  <circle cx="1100" cy="100" r="260" fill="url(#orbA)"/>
  <circle cx="180" cy="355" r="300" fill="url(#orbB)"/>

  <g opacity="0.11">
    <path d="M72 68H1208" stroke="white"/>
    <path d="M72 128H1208" stroke="white"/>
    <path d="M72 188H1208" stroke="white"/>
    <path d="M72 248H1208" stroke="white"/>
    <path d="M72 308H1208" stroke="white"/>
    <path d="M72 368H1208" stroke="white"/>
    <path d="M160 38V386" stroke="white"/>
    <path d="M288 38V386" stroke="white"/>
    <path d="M416 38V386" stroke="white"/>
    <path d="M544 38V386" stroke="white"/>
    <path d="M672 38V386" stroke="white"/>
    <path d="M800 38V386" stroke="white"/>
    <path d="M928 38V386" stroke="white"/>
    <path d="M1056 38V386" stroke="white"/>
    <path d="M1184 38V386" stroke="white"/>
  </g>

  <path d="M-40 315 C 150 205, 315 350, 505 220 C 705 82, 875 94, 1325 172" stroke="url(#stroke)" stroke-width="4" opacity="0.92"/>
  <path d="M-20 130 C 185 70, 350 160, 560 105 C 790 45, 950 5, 1320 68" stroke="#8BE9FF" stroke-opacity="0.18" stroke-width="2"/>

  <g filter="url(#glow)" transform="translate(88 74)">
    <path d="M0 210L96 0H146L245 210H184L167 169H75L58 210H0Z" fill="url(#gold)"/>
    <path d="M96 122H142L119 66L96 122Z" fill="#0A66FF"/>
    <path d="M232 210L328 0H378L477 210H416L399 169H307L290 210H232Z" fill="#00D4FF" opacity="0.96"/>
    <path d="M328 122H374L351 66L328 122Z" fill="#06142B"/>
  </g>

  <g filter="url(#soft)">
    <rect x="610" y="70" width="530" height="236" rx="28" fill="#031225" fill-opacity="0.48" stroke="white" stroke-opacity="0.13"/>
  </g>

  <text x="640" y="132" fill="white" font-family="Inter, Segoe UI, Arial, sans-serif" font-size="47" font-weight="900" letter-spacing="1.4">
    MICHEL ANGLUS
  </text>
  <text x="642" y="174" fill="#BFDFFF" font-family="Inter, Segoe UI, Arial, sans-serif" font-size="24" font-weight="700">
    Founder • Full Stack • SaaS • AI • Cloud • Security
  </text>
  <text x="642" y="216" fill="#EAF6FF" font-family="Inter, Segoe UI, Arial, sans-serif" font-size="18" font-weight="600">
    Building the Anglus Software ecosystem:
  </text>
  <text x="642" y="246" fill="#EAF6FF" font-family="Inter, Segoe UI, Arial, sans-serif" font-size="18" font-weight="600">
    DropDrop • GPS Safe • VilaSafe • RemoteSafe • 2FAKey • NVRSafe
  </text>

  <g transform="translate(642 274)">
    <rect x="0" y="0" width="90" height="34" rx="17" fill="white" fill-opacity="0.12" stroke="white" stroke-opacity="0.22"/>
    <text x="22" y="23" fill="#FFFFFF" font-family="Inter, Segoe UI, Arial, sans-serif" font-size="13" font-weight="800">SaaS</text>
    <rect x="104" y="0" width="104" height="34" rx="17" fill="white" fill-opacity="0.12" stroke="white" stroke-opacity="0.22"/>
    <text x="126" y="23" fill="#FFFFFF" font-family="Inter, Segoe UI, Arial, sans-serif" font-size="13" font-weight="800">AI Apps</text>
    <rect x="222" y="0" width="116" height="34" rx="17" fill="white" fill-opacity="0.12" stroke="white" stroke-opacity="0.22"/>
    <text x="244" y="23" fill="#FFFFFF" font-family="Inter, Segoe UI, Arial, sans-serif" font-size="13" font-weight="800">DevOps</text>
    <rect x="352" y="0" width="128" height="34" rx="17" fill="white" fill-opacity="0.12" stroke="white" stroke-opacity="0.22"/>
    <text x="374" y="23" fill="#FFFFFF" font-family="Inter, Segoe UI, Arial, sans-serif" font-size="13" font-weight="800">Security</text>
  </g>

  <text x="92" y="364" fill="#F3F8FF" font-family="Inter, Segoe UI, Arial, sans-serif" font-size="22" font-weight="800">
    Anglus Software — tecnologia própria para operações reais.
  </text>
</svg>
